<svg xmlns="http://www.w3.org/2000/svg" xmlns:xlink="http://www.w3.org/1999/xlink" version="1.1" x="0px" y="0px" viewBox="0 0 100 125" style="enable-background:new 0 0 100 100;" xml:space="preserve"><path d="M61.883,62.99c-1.509-1.928-3.855-2.49-6.124-1.465c-2.869,1.296-3.896,4.514-3.899,7.094  c-0.002,1.403,0.278,2.759,0.81,3.922c0.792,1.729,2.151,3.007,3.73,3.505c0.495,0.157,1.007,0.233,1.518,0.233  c1.26,0,2.513-0.464,3.49-1.333c1.554-1.382,2.326-3.58,2.293-6.53C63.68,66.506,62.966,64.376,61.883,62.99z M60.743,74.199  c-1.093,0.973-2.679,1.325-4.042,0.894c-1.291-0.408-2.458-1.518-3.122-2.968c-0.472-1.033-0.721-2.244-0.719-3.504  c0.003-2.268,0.875-5.084,3.312-6.185c1.853-0.838,3.695-0.401,4.924,1.17c0.957,1.224,1.587,3.116,1.606,4.82  C62.73,71.075,62.071,73.017,60.743,74.199z"/><path d="M50.917,52.462c0.439,0,0.84-0.215,1.01-0.307c1.288-0.689,2.503-1.521,3.613-2.475c0.235-0.202,0.673-0.579,0.731-1.146  c0.067-0.668-0.258-1.01-0.458-1.154c-0.96-0.695-2.911,0.166-2.992,0.203c-1.204,0.539-2.288,1.601-2.828,2.77l0,0  c-0.363,0.788-0.261,1.535,0.262,1.905C50.468,52.409,50.697,52.462,50.917,52.462z"/><path d="M47.123,74.414c-1.292-0.019-2.554-0.479-3.612-1.344c-0.393-0.322-0.936-0.761-1.601-0.627  c-0.509,0.102-0.923,0.53-1.056,1.093c-0.114,0.488-0.002,0.962,0.092,1.277c0.347,1.155,1.083,2.171,2.074,2.86  c0.898,0.625,1.977,0.961,3.069,0.961c0.111,0,0.222-0.003,0.333-0.01c0.276-0.018,0.485-0.255,0.468-0.53  c-0.018-0.276-0.262-0.488-0.53-0.468c-0.976,0.063-1.963-0.213-2.769-0.773c-0.806-0.561-1.405-1.387-1.687-2.328  c-0.098-0.325-0.122-0.567-0.077-0.76c0.04-0.171,0.16-0.318,0.278-0.341c0.203-0.038,0.506,0.204,0.83,0.469  c1.175,0.959,2.657,1.5,4.172,1.522c0.241-0.016,0.503-0.217,0.507-0.493C47.62,74.646,47.399,74.418,47.123,74.414z"/><path d="M72.243,58.743c-1.443-1.319-3.701-1.357-4.931-0.083c-1.098,1.138-1.452,2.783-1.08,5.026  c0.189,1.145,0.486,2.633,1.1,3.999c1.043,2.318,2.217,3.735,3.49,4.212c0.322,0.121,0.647,0.181,0.975,0.181  c0.409,0,0.82-0.095,1.23-0.283c1.225-0.563,1.76-2.111,1.994-3.312c0.403-2.08,0.087-4-0.25-5.246  C74.373,61.771,73.851,60.214,72.243,58.743z M74.038,68.293c-0.155,0.794-0.546,2.188-1.43,2.594  c-0.494,0.227-0.963,0.25-1.437,0.074c-0.113-0.042-0.239-0.108-0.37-0.186c0.198-0.053,0.392-0.134,0.567-0.263  c0.385-0.282,0.689-0.692,0.902-1.219c0.498-1.23,0.4-2.822-0.23-4.015c-0.273,0.286-0.656,0.466-1.083,0.466  c-0.828,0-1.5-0.672-1.5-1.5c0-0.346,0.122-0.661,0.319-0.915c-0.484-0.081-0.988-0.036-1.428,0.176  c-0.484,0.233-0.777,0.592-0.962,0.942c-0.065-0.324-0.121-0.636-0.169-0.923c-0.316-1.91-0.05-3.274,0.813-4.169  c0.849-0.88,2.501-0.82,3.537,0.126c1.411,1.291,1.863,2.637,2.236,4.018C74.241,65.116,74.324,66.818,74.038,68.293z"/><path d="M82.38,64.223c-0.053-0.23-0.125-0.474-0.294-0.691c-0.243-0.31-0.625-0.457-0.977-0.378  c-0.393,0.091-0.601,0.416-0.713,0.591l-1.219,1.908c-0.704-3.778-2.053-7.27-4.005-10.266c1.52-2.221,2.684-4.523,3.541-7.036  c2.741-8.044,2.26-15.595-1.354-21.264c-5.063-7.94-11.477-9.344-17.614-10.102c-13.591-1.679-24.583,4.764-28.676,7.611  l-0.165,0.114c-8.246,5.576-13.71,13.735-14.992,22.384c-0.924,6.239,0.533,12.097,4.103,16.494  c5.647,6.955,15.21,7.901,18.352,8.212c0.084,0.008,0.152,0.014,0.225,0.021c-0.623,2.407-1.25,6.581,0.576,10.024  c2.629,4.953,6.405,6.115,9.494,6.3c-0.568,1.355-0.406,2.984,0.475,4.035c0.057,0.068,0.131,0.12,0.214,0.15  c1.372,0.493,2.749,0.743,4.063,0.743c0.599,0,1.185-0.052,1.75-0.157c0.587-0.109,0.978-0.554,0.95-1.083  c-0.021-0.406-0.226-0.796-0.59-1.129c-0.166-0.151-0.351-0.279-0.537-0.405c-0.082-0.056-0.164-0.111-0.244-0.17  c-0.623-0.459-1.074-1.409-1.276-2.203c0.938-0.118,1.71-0.257,2.357-0.374c0.625-0.113,1.118-0.203,1.549-0.236  c0.268-0.021,0.795-0.017,1.498-0.02c2.656-0.018,7.92-0.005,11.379-1.134c0.014,0.03,0.021,0.061,0.041,0.089  c0.477,0.652,1.129,1.544,2.15,1.825c0.221,0.061,0.454,0.092,0.701,0.092c0.352,0,0.732-0.062,1.149-0.187  c1.728-0.516,3.203-1.806,3.946-3.45c0.163-0.361,0.083-0.776-0.203-1.057c-0.204-0.201-0.488-0.314-0.845-0.335  c-0.484-0.029-0.916,0.097-1.333,0.217c-0.15,0.043-0.299,0.086-0.449,0.121c-0.14,0.032-0.532,0.102-0.833-0.002  c2.907-2.778,5.191-7.277,5.145-12.564c1.022-0.69,1.848-1.671,2.324-2.808C82.554,66.889,82.673,65.51,82.38,64.223z   M20.792,62.959c-3.392-4.177-4.773-9.759-3.89-15.717c1.222-8.249,6.667-16.362,14.563-21.702l0.176-0.122  c3.999-2.782,14.73-9.075,27.983-7.44c6.144,0.759,12.06,2.067,16.893,9.647c3.447,5.406,3.891,12.652,1.25,20.404  c-0.781,2.289-1.836,4.398-3.218,6.479c-1.487-2.083-3.266-3.953-5.337-5.542c-1.66-1.274-3.578-1.73-5.705-1.361  c-4.374,0.762-8.797,4.938-11.24,8.74c-2.066,3.215-4.407,6.5-7.524,8.748c-1.706,1.23-2.607,1.568-3.203,1.792  c-0.46,0.172-0.824,0.309-1.207,0.711c-0.351,0.368-0.961,1.643-1.462,3.249c-0.127-0.011-0.253-0.023-0.405-0.038  C35.426,70.506,26.176,69.59,20.792,62.959z M54.15,90.938c0.09,0.066,0.183,0.13,0.276,0.193c0.146,0.099,0.293,0.197,0.423,0.315  c0.162,0.148,0.259,0.31,0.271,0.428c-0.009,0.013-0.057,0.047-0.138,0.062c-1.593,0.294-3.374,0.123-5.159-0.497  c-0.564-0.773-0.72-2.136-0.059-3.26c0.179-0.001,0.357-0.003,0.528-0.008c0.806-0.023,1.521-0.073,2.175-0.134  C52.701,89.062,53.287,90.301,54.15,90.938z M75.628,84.456c0.169-0.038,0.337-0.086,0.504-0.135  c0.354-0.102,0.691-0.193,0.998-0.18c0.102,0.006,0.159,0.025,0.184,0.009c-0.628,1.371-1.863,2.445-3.309,2.877  c-0.524,0.156-0.948,0.186-1.298,0.089c-0.59-0.163-1.038-0.687-1.505-1.315c0.877-0.388,1.754-0.941,2.597-1.635  C74.247,84.508,74.887,84.625,75.628,84.456z M70.667,84.95c-3.185,1.341-8.93,1.35-11.739,1.35c-0.019,0-0.038,0-0.057,0  c-0.737,0.018-1.295,0.001-1.577,0.023c-0.481,0.038-1.022,0.136-1.648,0.25c-1.23,0.223-2.916,0.528-5.383,0.599  c-3.263,0.102-7.391-0.477-10.211-5.793c-1.763-3.323-1.005-7.482-0.396-9.666c0.55-1.971,1.216-3.233,1.401-3.427  c0.225-0.236,0.429-0.313,0.834-0.465c0.646-0.242,1.623-0.608,3.437-1.917c3.252-2.346,5.662-5.721,7.78-9.018  c2.25-3.5,6.518-7.589,10.571-8.295c1.838-0.321,3.496,0.073,4.924,1.169c2.251,1.728,4.167,3.784,5.693,6.11  c2.66,4.055,4.188,9.062,4.42,14.479C79.023,77.502,74.798,83.21,70.667,84.95z M81.121,67.72c-0.32,0.762-0.825,1.44-1.449,1.982  c-0.053-0.875-0.141-1.737-0.26-2.588c0.02-0.021,0.044-0.037,0.06-0.062l1.767-2.767c0.018-0.027,0.063-0.097,0.067-0.125  c0.044,0.065,0.074,0.176,0.1,0.287C81.652,65.531,81.551,66.693,81.121,67.72z"/><path d="M66.292,45.208c0.283,0.239,0.62,0.361,0.891,0.458l2.523,0.914c0.101,0.036,0.253,0.091,0.434,0.091  c0.053,0,0.109-0.005,0.167-0.016c0.341-0.069,0.616-0.363,0.686-0.73c0.053-0.274-0.01-0.524-0.07-0.711  c-0.268-0.83-0.861-1.542-1.627-1.954c-0.631-0.341-1.689-0.593-2.519-0.346c-0.475,0.143-0.833,0.531-0.933,1.013  C65.743,44.407,65.911,44.886,66.292,45.208L66.292,45.208z"/><path d="M58.571,69.928c-0.828,0-1.5-0.672-1.5-1.5c0-0.687,0.465-1.26,1.095-1.438c-0.592-0.342-1.328-0.484-2.23-0.245  c-1.369,0.36-2.101,1.843-2.218,3.153c-0.106,1.183,0.33,2.393,1.167,3.235c0.476,0.479,1.04,0.804,1.631,0.938  c0.201,0.045,0.403,0.067,0.604,0.067c0.482,0,0.95-0.129,1.338-0.377c1.489-0.953,1.738-2.986,1.339-4.474  C59.526,69.674,59.079,69.928,58.571,69.928z"/><path d="M69.423,75.701c-0.435-0.919-1.336-0.665-1.722-0.556l-0.148,0.04c-0.722,0.169-1.404,0.33-2.1,0.374  c-0.598,0.036-1.193-0.012-1.825-0.064l-0.279-0.022c-0.235-0.018-0.558-0.043-0.878,0.065c-0.485,0.166-0.764,0.631-0.65,1.084  c0.288,1.143,1.543,1.976,2.659,2.294c0.354,0.101,0.728,0.151,1.114,0.151c0.597,0,1.223-0.12,1.854-0.359  c0.888-0.336,1.634-1.027,1.947-1.801C69.573,76.466,69.583,76.038,69.423,75.701L69.423,75.701z M65.931,78.05  c-0.419,0.041-0.814,0.007-1.176-0.096c-0.927-0.265-1.718-0.875-1.933-1.478c0.124-0.033,0.296-0.02,0.45-0.007l0.279,0.022  c0.36,0.03,0.722,0.059,1.083,0.072c0.701,0.318,1.155,1.05,1.335,1.483C65.956,78.048,65.943,78.049,65.931,78.05z"/><text x="0" y="115" fill="#000000" font-size="5px" font-weight="bold" font-family="'Helvetica Neue', Helvetica, Arial-Unicode, Arial, Sans-serif">Created by sobinsergey</text><text x="0" y="120" fill="#000000" font-size="5px" font-weight="bold" font-family="'Helvetica Neue', Helvetica, Arial-Unicode, Arial, Sans-serif">from the Noun Project</text></svg>