<svg xmlns="http://www.w3.org/2000/svg" xmlns:xlink="http://www.w3.org/1999/xlink" version="1.1" x="0px" y="0px" viewBox="0 0 50 62.5" enable-background="new 0 0 50 50" xml:space="preserve"><g><g><path d="M34.1349983,49H15.8649149c-2.159915,0-3.5-2.3599014-2.3899145-4.2099991    c2.4799995-4.1499023,3.8899155-8.6898994,4.2800007-13.2597008h14.5    c0.3999977,4.6799011,1.8599129,9.2196999,4.2700005,13.2597008C37.6349983,46.6400986,36.3049164,49,34.1349983,49z"/></g><g><path d="M33.3250008,11.8100004c-0.6200027,0-1.1300011,0.5100994-1.1300011,1.1301994    c0,0.6299,0.5099983,1.1399002,1.1300011,1.1399002c0.6299973,0,1.1399994-0.5100002,1.1399994-1.1399002    C34.4650002,12.3200998,33.954998,11.8100004,33.3250008,11.8100004z"/><path d="M15.2049999,11.8100004c-0.6300001,0-1.1399994,0.5100994-1.1399994,1.1301994    c0,0.6299,0.5099993,1.1399002,1.1399994,1.1399002c0.6199999,0,1.1300011-0.5100002,1.1300011-1.1399002    C16.335001,12.3200998,15.8249998,11.8100004,15.2049999,11.8100004z"/><path d="M48.875,22.5800991C46.4349136,10.0801001,36.3950005,1,25.0049992,1    C13.6050005,1,3.5650005,10.0801001,1.1250006,22.5800991c-0.36,1.8200016,0.1,3.7199001,1.2299999,5.1001015    c0.98,1.1898994,2.3299146,1.8500996,3.8000002,1.8500996h37.6900024c1.4699974,0,2.8199997-0.6602001,3.7999992-1.8500996    C48.7749977,26.2999992,49.2350006,24.4001007,48.875,22.5800991z M15.9349146,17c-1.8499146,0-3.3599138-1.5-3.3599138-3.3599005    c0-1.8597994,1.5099993-3.3597994,3.3599138-3.3597994c1.8600855,0,3.3600855,1.5,3.3600855,3.3597994    C19.2950001,15.5,17.7950001,17,15.9349146,17z M24.9960003,24.1494007c-2.7082005,0-4.9108009-2.9458008-4.9108009-6.5688    h9.8215008C29.9067001,21.2035999,27.7042007,24.1494007,24.9960003,24.1494007z M34.0649986,17    c-1.8600006,0-3.3599987-1.5-3.3599987-3.3599005c0-1.8597994,1.4999981-3.3597994,3.3599987-3.3597994    s3.3600006,1.5,3.3600006,3.3597994C37.4249992,15.5,35.9249992,17,34.0649986,17z"/></g></g><text x="0" y="65" fill="#000000" font-size="5px" font-weight="bold" font-family="'Helvetica Neue', Helvetica, Arial-Unicode, Arial, Sans-serif">Created by Vectors Point</text><text x="0" y="70" fill="#000000" font-size="5px" font-weight="bold" font-family="'Helvetica Neue', Helvetica, Arial-Unicode, Arial, Sans-serif">from the Noun Project</text></svg>