<svg height='100px' width='100px'  fill="#000000" xmlns="http://www.w3.org/2000/svg" xmlns:xlink="http://www.w3.org/1999/xlink" version="1.1" x="0px" y="0px" viewBox="0 0 100 100" enable-background="new 0 0 100 100" xml:space="preserve"><path fill="#000000" d="M40.499,55.275c-1.934,0-3.5,1.567-3.5,3.5s1.566,3.5,3.5,3.5c1.933,0,3.5-1.567,3.5-3.5  S42.432,55.275,40.499,55.275z M37.999,63.275c-1.104,0-2,0.896-2,2s0.896,2,2,2s2-0.896,2-2S39.104,63.275,37.999,63.275z   M49.999,64.275c1.104,0,2-0.896,2-2s-0.896-2-2-2s-2,0.896-2,2S48.895,64.275,49.999,64.275z M84,44.274  c-0.001-10.652-4.903-20.155-12.57-26.39c0.342-0.624,0.562-1.324,0.566-2.111c-0.012-1.791-1.093-3.153-2.351-4.114  c-3.829-2.841-11.066-4.331-19.647-4.387c-5.7,0.007-10.861,0.74-14.762,2.005c-1.952,0.638-3.594,1.394-4.886,2.382  c-1.258,0.961-2.339,2.323-2.351,4.114c0.005,0.787,0.224,1.487,0.565,2.111c-7.666,6.233-12.568,15.736-12.569,26.39  c0.002,13.553,7.931,25.249,19.401,30.711l-3.333,12.785c-0.122,0.466-0.067,0.949,0.136,1.374c0.14,0.452,0.363,0.854,0.621,1.163  c1.489,1.657,3.657,2.279,6.608,2.955c2.933,0.604,6.587,0.95,10.57,0.95c4.548,0,8.667-0.452,11.78-1.229  c1.563-0.394,2.874-0.854,3.948-1.483c0.536-0.318,1.025-0.681,1.446-1.192c0.26-0.31,0.484-0.715,0.622-1.169  c0.204-0.422,0.256-0.904,0.136-1.368l-3.334-12.786C76.067,69.521,83.998,57.826,84,44.274z M49.999,84.275  c-4.196,0-7.674-3.043-8.367-7.041c0.273,0.068,0.549,0.127,0.823,0.189c0.146,0.033,0.29,0.069,0.437,0.101  c0.688,0.146,1.383,0.273,2.086,0.378c0.172,0.025,0.348,0.043,0.52,0.065c0.539,0.071,1.082,0.13,1.629,0.176  c0.244,0.021,0.486,0.04,0.731,0.056c0.618,0.039,1.241,0.062,1.868,0.067c0.092,0.001,0.182,0.01,0.273,0.01  c0.094,0,0.186-0.009,0.278-0.01c0.624-0.005,1.243-0.028,1.859-0.067c0.247-0.016,0.493-0.035,0.739-0.056  c0.541-0.046,1.077-0.104,1.61-0.175c0.179-0.023,0.359-0.041,0.538-0.068c0.697-0.104,1.389-0.229,2.072-0.375  c0.154-0.033,0.309-0.071,0.463-0.106c0.27-0.062,0.539-0.118,0.806-0.187C57.673,81.231,54.195,84.275,49.999,84.275z   M64.521,70.509c-0.19,0.105-0.382,0.207-0.574,0.309c-0.306,0.161-0.611,0.323-0.924,0.474c-0.092,0.045-0.187,0.084-0.279,0.128  c-0.682,0.321-1.377,0.615-2.086,0.886c-0.152,0.059-0.305,0.119-0.459,0.175c-0.348,0.126-0.7,0.244-1.055,0.357  c-0.174,0.056-0.348,0.109-0.523,0.161c-0.359,0.109-0.721,0.215-1.086,0.311c-0.121,0.031-0.244,0.057-0.365,0.086  c-0.68,0.168-1.369,0.311-2.066,0.431c-0.229,0.039-0.456,0.081-0.686,0.115c-0.314,0.047-0.631,0.085-0.947,0.122  c-0.295,0.033-0.592,0.063-0.889,0.089c-0.277,0.024-0.555,0.048-0.834,0.064c-0.528,0.03-1.059,0.051-1.594,0.054  c-0.053,0-0.104,0.004-0.155,0.004c-0.049,0-0.097-0.004-0.146-0.004c-0.539-0.002-1.073-0.023-1.604-0.054  c-0.276-0.017-0.55-0.04-0.823-0.063c-0.304-0.026-0.605-0.057-0.906-0.092c-0.311-0.036-0.622-0.073-0.931-0.119  c-0.243-0.035-0.481-0.08-0.722-0.121c-0.664-0.115-1.32-0.251-1.967-0.408c-0.148-0.037-0.299-0.068-0.445-0.106  c-0.355-0.093-0.707-0.196-1.057-0.301c-0.188-0.057-0.375-0.113-0.561-0.173c-0.345-0.111-0.688-0.226-1.027-0.349  c-0.17-0.062-0.337-0.128-0.506-0.192c-0.683-0.262-1.354-0.546-2.012-0.855c-0.106-0.049-0.215-0.095-0.32-0.146  c-0.312-0.151-0.619-0.312-0.925-0.474c-0.188-0.1-0.377-0.2-0.563-0.303c-0.163-0.091-0.323-0.186-0.484-0.279V52.275h29.996  l0.003,17.959C64.839,70.326,64.681,70.42,64.521,70.509z M69,67.468V50.274c0-0.526-0.214-1.041-0.589-1.415  c-0.371-0.372-0.886-0.586-1.412-0.586H32.998c-0.526,0-1.04,0.214-1.412,0.586c-0.375,0.371-0.589,0.889-0.589,1.415v17.194  C24.294,61.969,20.016,53.627,20,44.274c0.016-9.6,4.526-18.13,11.536-23.618c4.035,2.34,10.693,3.57,18.462,3.618  c5.702-0.003,10.861-0.74,14.762-2.002c1.403-0.459,2.642-0.984,3.71-1.607c7.004,5.488,11.511,14.015,11.527,23.609  C79.981,53.627,75.702,61.969,69,67.468z M49.997,68.275c-2.213-0.005-4.006-1.287-4.689-3h-2.113  c0.74,2.903,3.542,4.993,6.803,4.999c3.261-0.006,6.063-2.096,6.805-4.999h-2.115C54.003,66.988,52.21,68.271,49.997,68.275z   M61.999,63.275c-1.104,0-2,0.896-2,2s0.896,2,2,2s2-0.896,2-2S63.104,63.275,61.999,63.275z M62.999,58.775  c0-1.933-1.567-3.5-3.5-3.5c-1.934,0-3.5,1.567-3.5,3.5s1.566,3.5,3.5,3.5C61.432,62.275,62.999,60.708,62.999,58.775z"></path></svg>