<svg xmlns="http://www.w3.org/2000/svg" xmlns:xlink="http://www.w3.org/1999/xlink" version="1.1" x="0px" y="0px" viewBox="0 0 100 125" enable-background="new 0 0 100 100" xml:space="preserve"><path fill="#000000" d="M36.773,54.949c0,0,1.922,2.563,3.274,3.203c0.427,0.285,0,10.803,0,10.803s2.563,0.871,4.698,0.73  c0,0-0.498,2.633-4.912,1.779c-1.353-0.355-3.417-2.064-3.417-2.064s0.143-0.537,0.641-0.445l0.925-6.639  c0,0-2.491,2.598-4.912,2.457c-2.42-0.141-4.856-1.779-4.485-6.408c0,0,7.5,0.207,8.898-0.426c0,0-0.391-1.994-1.352-2.813  C35.706,54.486,36.773,54.949,36.773,54.949z M48.199,54.787c0,0-1.923,1.766-2.848,2.264c-0.248,0.248,1.815,9.125,5.339,9.635  c0,0-2.134-2.801-2.17-4.369c0,0,2.811,2.996,6.94,2.742c4.129-0.254,7.76-4.377,7.298-7.689l-15.235,0.107  c0,0-0.391-0.322,0.036-1.068C47.986,55.66,48.199,55.303,48.199,54.787z M46.294,79.936c-0.32-0.908-1.175-1.174-3.897-1.174  c-2.723,0-2.937,1.174-2.937,1.174H46.294z M37.539,76.625c0.427,0.32,4.912,0.16,8.222,0.055c3.31-0.107,4.004,0.748,4.591,1.281  c0.588,0.535,1.442,0.961,1.335,0.428c-0.855-1.977-5.66-5.127-6.356-5.02c-3.74,1.549-6.298,0-6.298,0  c-2.616,2.189-2.83,4.697-2.83,4.697C36.524,78.602,37.271,77.213,37.539,76.625z M17.339,54.949  c0.783-4.023,11.889-6.548,15.128-7.083c3.238-0.534,5.552-0.606,5.161-0.819c-7.481-0.129-13.027,1.354-18.473,4.664  c-5.446,3.311-1.032,6.977-1.032,6.977S17.162,56.443,17.339,54.949z M23.604,50.75c0,0,1.737,2.881,3.595,2.383  c0.355-0.213-2.599-1.066-2.741-2.383C24.458,50.75,23.71,50.101,23.604,50.75z M21.201,60.234c2.242,0.455,3.551-0.748,4.031-1.361  c0.561-1.521,0.267-1.949-0.374-0.854c-0.641,1.094-3.871,1.709-3.871,1.709S18.958,59.781,21.201,60.234z M42.344,36.263  c4.965-1.869,5.393-7.315-0.587-8.703c-5.98-1.388-9.397,3.844-9.397,3.844C30.063,36.155,37.378,38.131,42.344,36.263z   M75.998,64.561c0.356,3.203,2.491,5.766,2.491,5.766c3.273,1.637,0,3.488,0,3.488s-0.142,4.059,0,4.484  c-1.495,2.99-10.678,7.334-14.522,8.828c-3.844,1.496-17.245,2.047-17.245,2.047c-18.51,0.143-23.83-9.094-24.4-10.59  c-0.569-1.494,1.495-6.336,1.495-6.336c-0.926,0.213-3.061-0.711-4.84-1.992c-1.78-1.281,1.209-2.707,2.206-2.775  c0.712-0.498,1.922-2.139,1.922-2.139s0.039-0.053,0.059-0.078c-2.319-0.59-16.252-4.805-13.656-20.726  c3.096-12.761,21.356-33.441,42.428-33.654c4.343-0.099,15.928-1.797,34.1,22.784C91.055,41.569,97.105,64.133,75.998,64.561z   M74.938,22.676 M24.564,69.791c1.441-3.041,2.509-5.07,2.349-7.475c0,0-2.402,5.285-5.819,6.088c0,0-1.175,0.266-1.121,1.014  C19.973,69.418,23.123,72.836,24.564,69.791z M74.111,62.316c-0.482-2.264-0.374-3.736-1.175-4.537  c-8.97-8.009-21.249-7.422-31.821-7.476c-10.571-0.053-13.241,4.646-13.241,4.646s0.214,10.324-0.57,12.314  c-0.213,0.498-2.633,5.127-3.131,5.98s-0.783,2.635-0.724,4.557c0.06,1.922,6.881,10.092,22.845,10.252  c18.801,0.188,26.696-5.949,29.953-9.42c0.96-1.021,0.427-4.889,0.427-4.889c-2.666,0.588-6.353-1.229-7.795-2.691  c-1.441-1.461-1.121-2.703-0.48-2.008c1.815,2.295,6.675,3.951,7.741,3.736c3.311-0.32,1.815-1.387,1.281-1.729  c-1.655-0.18-3.363-3.076-4.11-4.367s-0.32-2.926,0.053-2.5c0.589,2.883,2.937,4.271,2.724,4.059  C75.873,68.031,74.593,64.582,74.111,62.316z M89.745,48.866c-0.14,0.039-4.556,1.2-6.29-6.998c-1.717-8.115,0.318-8.411,0.424-8.42  c-2.973-4.392-5.943-7.883-8.815-10.654c0.551,7.052-5.265,12.787-16.292,4.531c-7.623-8.177-1.403-13.109,2.467-13.547  c-5.686-2.057-9.444-1.47-9.444-1.47c-2.108-0.042-4.143,0.139-6.098,0.481c0.019,0.057,1.426,4.461-5.505,9.154  c-10.918,6.265-13.514,0.054-13.535,0.002c-3.485,2.823-5.473,5.168-5.473,5.168s-4.483,4.753-7.651,10.799  c0.012-0.005,8.606-3.291,11.884,3.314c1.711,4.965-10.052,12.547-14.127,11.586c4.33,10.574,12.958,10.783,13.009,10.785  c0.835-1.311,1.84-3.107,2.082-4.539c0.427-2.537,0.374-4.432,0.481-4.965c5.286-3.898,10.225-4.539,10.225-4.539  c-0.508-0.908-0.508-1.121-0.241-1.228c0.267-0.106,1.068,1.068,1.068,1.068c8.043-1.211,20.646,0.925,20.646,0.925  c-2.136-1.138-12.958-2.563-14.879-2.705c-1.922-0.143-2.848-0.57-2.848-0.57c4.761,0.036,8.938,0.415,12.617,1.019  c-0.17-1.858-0.116-7.626,6.941-8.653c8.437-1.228,16.021,4.538,17.835,9.023c1.813,4.484,1.879,9.764-2.451,9.607  c-0.001-0.002-0.003-0.002-0.004-0.002c1.299,1.338,1.9,2.334,2.009,2.605c0.428,1.066-0.427,1.422-0.925,1.066  c-0.214-2.135-1.21-2.279-1.425-2.207c-0.182,0.063,0.099,1.361,0.407,3.705C75.836,63.211,90.712,62.908,89.745,48.866z"/><text x="0" y="115" fill="#000000" font-size="5px" font-weight="bold" font-family="'Helvetica Neue', Helvetica, Arial-Unicode, Arial, Sans-serif">Created by Elizabeth</text><text x="0" y="120" fill="#000000" font-size="5px" font-weight="bold" font-family="'Helvetica Neue', Helvetica, Arial-Unicode, Arial, Sans-serif">from the Noun Project</text></svg>