<svg xmlns="http://www.w3.org/2000/svg" data-name="Слой 1" viewBox="0 0 53.82 113.2875" x="0px" y="0px"><title>Гриб3</title><path d="M36,33.71a10,10,0,0,1-4.05-2.4c-.89-.76-1.69-1.62-2.59-2.37a7.21,7.21,0,0,1-2.25-3.27,20.87,20.87,0,0,1-.84-2.76A5.17,5.17,0,0,1,28.07,18a22,22,0,0,1,7-4.21,32.06,32.06,0,0,0,8.65-5.24,13.82,13.82,0,0,1,12.91-3,12.39,12.39,0,0,1,3.67,1.62A2.28,2.28,0,0,0,62,7.49c3.08-.6,5.8.38,8.34,2a7.58,7.58,0,0,1,2.81,3.47c1,2.24,1.85,4.56,2.92,6.77a26.49,26.49,0,0,0,2.51,4.05,8,8,0,0,1,.29,8.42c-1.59,2.48-4,3.59-6.59,4.52a13.32,13.32,0,0,1-6.45.42c-2.37-.34-4.76-.33-7.14-.57a12.47,12.47,0,0,0-3.74.38c-.42.08-.85.15-.93.69s.24.72.69.88a4.19,4.19,0,0,1,1.59,1.21c1,1,1.9,2,2.84,3a5.37,5.37,0,0,1,.68.89c1.17,1.88.68,3.34-1.49,3.89a2.11,2.11,0,0,0-1.74,2.08,63.24,63.24,0,0,0-.53,7.89A44.69,44.69,0,0,1,54.3,68.72c-.53,1.89-.86,3.83-1.32,5.9a1.15,1.15,0,0,1,1.5.58,4.29,4.29,0,0,1,.31.55C57,81,57.21,86.14,53.48,90.93a33.85,33.85,0,0,1-2.25,2.53,6.6,6.6,0,0,1-5.3,2.15,8.3,8.3,0,0,1-3.45-1,1,1,0,0,1-.31-.22,22.57,22.57,0,0,1-3-4.82,35.85,35.85,0,0,1-1.81-6.26,12,12,0,0,1,1.21-8c.65-1.21,1.38-2.37,2.13-3.63,1,.9,1.16,2.12,1.39,3.27.43,0,.36-.36.41-.57.33-1.17.73-2.32,1.15-3.46a29.08,29.08,0,0,1,1.09-3.52,14.15,14.15,0,0,0,1.08-3.6c.78-3.74,1.55-7.48,1.2-11.33a17.48,17.48,0,0,0-.65-3.58,7.33,7.33,0,0,1-.44-3.71c.14-.67-.36-.68-.77-.61-.74.11-1.47.32-2.2.48l-1.36.28c-.53.11-1.14.33-1.51-.21s.08-1.06.32-1.52a9.29,9.29,0,0,1,1-1.15A36.62,36.62,0,0,0,43.86,39a4.63,4.63,0,0,1,1.48-1.34c.29-.19.55-.35.61-.74s0-.63-.47-.69c-.7-.1-1.42-.19-2.12-.23a34.54,34.54,0,0,1-6.44-1.55c-.46-.12-.92-.19-1-.78a1.71,1.71,0,0,1,1,.25,24.15,24.15,0,0,0,4.24,1.14A3.58,3.58,0,0,0,43.48,35a33.8,33.8,0,0,1-4.24-1.5,23.25,23.25,0,0,1-6-3.37,4.81,4.81,0,0,1-1.33-4.73,5.91,5.91,0,0,1,2.54-2.71,10.8,10.8,0,0,1,6.6-1.49c1.39.13,2.74.4,4.11.56,2.87.33,5.67,1.1,8.56,1.3,3.38.23,6.77.5,10.15.78a10.85,10.85,0,0,1,4,.85,53.1,53.1,0,0,0,5.66,2.68c1.43.5,1.75,1.77,2,2.91a5,5,0,0,1-3.26,5c-1.23.32-2.43.74-3.8,1.16a2.21,2.21,0,0,0,1.46.1c.88-.12,1.65-.63,2.51-.8a8.79,8.79,0,0,0,6-4.41,6,6,0,0,0-.07-6.23,20.85,20.85,0,0,0-2.56-3.86,1.82,1.82,0,0,1-.33-.53c-1-2.3-2-4.62-3-6.91A8,8,0,0,0,69,9.61a9.69,9.69,0,0,0-4.53-1.33c-1,0-2.09-.28-3,.41a.64.64,0,0,1-.81-.15,15.69,15.69,0,0,0-1.87-1.26,7.46,7.46,0,0,0-3.21-1.62,10.76,10.76,0,0,0-5.91.55A17.88,17.88,0,0,0,43.18,10a9,9,0,0,1-1.08.85,37.55,37.55,0,0,1-7.67,4,22.5,22.5,0,0,0-5.56,3.37,5,5,0,0,0-1.48,5.95c.18.47.3,1,.47,1.43a6.06,6.06,0,0,0,1.92,3.13,10,10,0,0,1,1.72,1.44,12.46,12.46,0,0,0,3,2.42A4.87,4.87,0,0,1,36,33.71Zm9.27-5a.85.85,0,0,1,.55.48c.23.49.54.7,1.08.51a2,2,0,0,1,.5,0c1-.08.93-.12,1-1a9.25,9.25,0,0,0-.83-3.11,4.52,4.52,0,0,0-.78-1.93c-.49-.49-1.37-.11-2.07-.21a10.35,10.35,0,0,0-1.12-.09,4.63,4.63,0,0,0-2.47.28c1.15.15,2.36-.12,3.43.63-.3.34-.61.21-.89.25-.77.13.32.42-.07.7s-.72.2-.94.52c.16.45.9.18.86.59-.09.79.55.94.94,1.31s.81.61.86,1.17C44,27,42.34,27.63,40.57,27.85a3.87,3.87,0,0,0,1.63.54.77.77,0,0,1,.77.47c.39.74,1.23.95,1.91,1.31.33.18.61-.15.47-.54A1.34,1.34,0,0,1,45.23,28.67ZM48,67.91l-.82-.45c.28.47.58.4.84.43,0,.49.88.91.14,1.49,0,0,0,.16.07.23.43.63.37,1.42.68,2.08.1.2.22.38,0,.56a.38.38,0,0,1-.56,0c-.69-.68-.89-.1-1.14.36a7.63,7.63,0,0,1,2.19.73c-.29.26-.49.47-.72.64s-.35.18-.2.36c.66.75-.3.45-.45.71.28.1.55.19.82.3s.41.17.25.33c-.5.54-.08.54.3.62.09,0,.23.21.21.27-.3.66.17,1.07.53,1.46.22.23-.13.42.09.65.27-.78.51-1.54.79-2.27.13-.34.16-.81.57-.93s.52-.58.61-1c.5-2.16,1-4.33,1.5-6.48a49.69,49.69,0,0,0,1.61-10.28,46.39,46.39,0,0,1,.49-7.9.65.65,0,0,0-.11-.61c-.46-.13-.91.38-1.31.14s-.3-.91-.41-1.39l0-.12a.44.44,0,0,0-.5-.29c-.21,0-.19.22-.26.35-.31.55.38.87.33,1.38-.5.1-.85-.21-1.24-.3s-.81-.34-1.23,0c.25.44.9.27,1.1.75-.4.36-.85-.24-1.18.16-.09.34.52.31.35.68-.32.15-.66-.18-1,.14,1,.15.73,1,.55,1.34-.28.5-.55.77.1,1.12.06,0,0,.25-.12.32s-.37.15-.13.42,0,.52-.3.55A2.23,2.23,0,0,1,49,54c-.36-.23-.38-.21-.26-.81,0-.16-.08-.22-.18-.25-.51-.21-.68.07-.71.53l-.36,5.14a.7.7,0,0,0,0,.25c.07.29.31.21.51.21s.24-.13.16-.32c-.2-.46.34-.72.31-1.16a.33.33,0,0,1,.45-.31,9.59,9.59,0,0,1,1.16.45c.07,0,.11.23.1.34s-.16.17-.29.18-.39-.16-.6,0c0,.24.27.28.41.42.43.42.19.91,0,1.28s-.64.22-1,.08-.9-.36-1.41-.57a7.58,7.58,0,0,0-.28,3,2.54,2.54,0,0,1,1.37.22c.34.17,1.07.11.92.62-.21.67-.76.11-1.15,0-1.08-.31-1.36-.09-1.35,1.14.52-.82.77-.93,1.47-.64s.71.52.63,1.27c-.1,1-.87.25-1.24.52.42.31.48.53.38,1.26a.3.3,0,0,0,.16.3c.15.09.29.17.43.27s.25.25.16.41-.21.13-.33.14S48.17,67.91,48,67.91ZM40.69,73a9.45,9.45,0,0,0-1.55,2.41A10.08,10.08,0,0,0,37.82,82c.6,4.21,1.76,8.26,5.06,11.3a.93.93,0,0,1,.22.31c.26.68.81.76,1.43.75a5.9,5.9,0,0,1,1.63.06,4.34,4.34,0,0,0,4.45-1.28,16.19,16.19,0,0,0,2.56-2.74c1.78-2.63,3-5.46,2.56-8.71a22.43,22.43,0,0,0-1.55-5.41,6,6,0,0,0-.25-.58q-.33-.58-.78-.06c-.26.32-.43.87-.83.9-1.1.06-1,.82-1,1.51a12.11,12.11,0,0,1-.3,3.12,2.73,2.73,0,0,1-.9,1.47c-.62.48-.91.42-1.28-.25a3.45,3.45,0,0,1-.45-1.81c0-.47-.12-.84-.71-.78s-.78-.34-1-.8a12.91,12.91,0,0,1-.81-3.67A10,10,0,0,0,45.66,74c-.12-.52-.44-.58-.83-.3a6.17,6.17,0,0,0-1.54,1.64c-.29.42-.42,1.17-1.11,1s-.68-.89-.79-1.45A4,4,0,0,0,40.69,73ZM74.23,30.5c-.11.7-.68.71-1.15.71-1.21,0-2.43,0-3.64-.13s-2.49-.31-3.74-.36a14,14,0,0,0-3.86.43c-2.21.54-4.24,1.58-6.4,2.22-.36.11-.62.27-.53.74a7.79,7.79,0,0,1,2.67.44,8,8,0,0,0,4.2,1.09,5.24,5.24,0,0,1,1.25.1,14.86,14.86,0,0,0,9.15-1.46A4.67,4.67,0,0,0,74.69,31a1.14,1.14,0,0,0,0-.87c-.58-1-1.12-2.15-2.37-2.43a6.07,6.07,0,0,1-2.44-1.2,1.84,1.84,0,0,0-2.1-.14,17.78,17.78,0,0,1-3.45,1.1,19,19,0,0,0-3.8,1.25,31.16,31.16,0,0,0-5.27,3.4c-.16.12-.41.23-.3.47s.41.23.65.15c1.19-.43,2.38-.81,3.55-1.29a16.47,16.47,0,0,1,9.09-1.19,19.88,19.88,0,0,0,4,.24C72.89,30.48,73.55,30.5,74.23,30.5ZM53.25,46a4.88,4.88,0,0,0,.5-2.5c0-.45-.07-1.12.45-1.15s.51.63.58,1.07c0,.13,0,.25,0,.38.09,1,.19,2.08.26,3.12,0,.54.27.79.8.65a27.23,27.23,0,0,0,2.78-.76,1.63,1.63,0,0,0,.86-2.26,5.83,5.83,0,0,0-.58-1,36.18,36.18,0,0,0-3.76-4,1.05,1.05,0,0,0-1.46-.21,3.87,3.87,0,0,1-1.82.38,13.89,13.89,0,0,1-5.12-.91,1.83,1.83,0,0,0-2.27.67c-1.17,1.52-2.29,3.09-3.42,4.64-.1.14-.14.29.05.53l4.73-.79a7.68,7.68,0,0,1,6.35,1.54A1.85,1.85,0,0,0,53.25,46ZM50.49,31a3.86,3.86,0,0,0-2.37-.31c-1.92.15-2.31.7-2,2.61A10,10,0,0,1,46.66,36c-.17,1.52.53,2.07,1.79,2.6a6.63,6.63,0,0,0,4,.4c.62-.11.89-.37.75-1a4.29,4.29,0,0,1,.57-3.12,3.28,3.28,0,0,0,.2-2.44c-.15-.69-1.07-1.25-1.62-.91a2,2,0,0,1-1.44.17,14.16,14.16,0,0,0-3.38,0c-.18,0-.4.15-.57-.15C48,31.05,49.19,31.18,50.49,31Zm4.1.82c1.39-1,2.64-2,4-2.83A21.08,21.08,0,0,1,65,26.58a6.07,6.07,0,0,0,2.66-1.1,4.21,4.21,0,0,0-1.6-.62,27,27,0,0,0-3.36-.37A48.74,48.74,0,0,0,57.46,24c-.38,0-.77-.1-1,.31a9.65,9.65,0,0,0-1.38,2.38,25.64,25.64,0,0,1-1.33,3.65c-.16.37-.15.62.18.86S54.34,31.62,54.59,31.84ZM55.87,24c-2.42-.36-4.63-.7-6.84-1a1.19,1.19,0,0,0-1.13,1.5C48.26,26,49,27.39,49,29c0,.41.23.58.62.65.78.14,1.55.32,2.32.49,1.07.24,1.05.24,1.49-.7C54.27,27.65,54.44,25.62,55.87,24Zm-18.13,6.4a1.21,1.21,0,0,0,.86.42c.75.05,1.45.35,2.22.35.32,0,.84.06.46.68-.21.33.15.34.3.31a15.17,15.17,0,0,1,2.23-.22c.5,0,.68-.45.8-.85s-.19-.61-.48-.77a10,10,0,0,0-1.24-.59,1,1,0,0,0-1.38.49c-.22.55-.57.49-1,.5A26.29,26.29,0,0,1,37.74,30.39Zm20.67,5.37V35.5a18,18,0,0,0-2.1-.73c-1.58-.34-1.78-.19-2.17,1.35,0,.1,0,.17.22.24.58-.11,1.27-.25,2-.35S57.72,35.84,58.41,35.76ZM36.7,26.5c1.89.69,4.95.81,5.85.16-1.8-.38-3.58,0-5.26-.47a.66.66,0,0,0-.36.06C36.86,26.28,36.82,26.36,36.7,26.5ZM38.9,28a6,6,0,0,0-2.51-.6c-.73-.09-1.07.17-1.24.91C36.45,28.33,37.68,28.82,38.9,28Zm2.23-2.19,0-.27a17.23,17.23,0,0,0-3.86-.42c-.22,0-.43.08-.43.34s.2.35.42.35Zm3.41,8.09a1,1,0,0,0,0-.85c-.25-.85-.62-1-1.46-.65-.28.12-.55.2-.51.58a.64.64,0,0,0,.56.57C43.57,33.66,44,33.76,44.54,33.88Zm-9.12-4.81a8,8,0,0,0,4.64.76A14.74,14.74,0,0,0,35.42,29.07Zm4.29-4.52c-.33-.3-.81-.23-1.21-.53-.67-.53-.76-.45-1.06.48C38.16,24.85,38.91,24.52,39.71,24.55Zm1.82,4.62a1.25,1.25,0,0,0-1.51.09A1.09,1.09,0,0,0,41.53,29.17Zm5.72,41.35c-.38-.22-.68-.63-1.23-.48C46.38,70.32,46.71,70.65,47.25,70.52Zm-.62-4.21a.45.45,0,0,0,.71.18C47.16,66.16,46.92,66.16,46.63,66.31ZM46,68c.11,0,.06.13,0,.25s.09.21.22.2.28-.07.29-.12S46.43,68,46,68Z" transform="translate(-26.13 -5)"/><path d="M51.34,7.1a21.29,21.29,0,0,1,2.39-.26c.44,0,.86-.28,1.29.1.25.23.55,0,.83-.07.77-.13.78-.1.49.84a3.51,3.51,0,0,1,2.34.77A5.69,5.69,0,0,0,60.26,9c.15.05.35,0,.37.26a.36.36,0,0,1-.22.41,6.33,6.33,0,0,1-2.36.26A5.07,5.07,0,0,1,55.61,8.7c-1.39-1-2-.93-3.59-.92-.58,0-.77-.15-.67-.69Z" transform="translate(-26.13 -5)"/><path d="M31.27,22.92l-2.8-.16c0-.43.25-.41.48-.42.58,0,1.17,0,1.76-.07.25,0,.56-.07.56-.37s-.34-.28-.57-.27c-.86,0-1.73.11-2.68.18.59-.6.75-.63,3.06-.67,1,0,2,.63,2.92.05.11.36,0,.43-.11.42a1.8,1.8,0,0,0-1.78,1.25c-.4.93-1.15.95-1.82,1s-1.4,0-2.21,0c.36-.8,1-.41,1.5-.58S30.71,23.09,31.27,22.92Z" transform="translate(-26.13 -5)"/><path d="M35.65,16.4c.49.05,1,.11,1.47.13a1.61,1.61,0,0,1,1.35.51,1,1,0,0,0,.91.3,6.74,6.74,0,0,1,1.61.18,9.43,9.43,0,0,1-3.15-.08,10.4,10.4,0,0,0-2.7-.6,30.15,30.15,0,0,0-3,0c.51-.38.94-.25,1.32-.34.58-.14,1.29.14,1.72-.52.05-.08.22-.1.34-.1a31.22,31.22,0,0,1,7.95.57A59.57,59.57,0,0,1,35.66,16Z" transform="translate(-26.13 -5)"/><path d="M38.73,14.16a13.41,13.41,0,0,0,3.14-1.71.37.37,0,0,1,.6.22c.25,1,1,.93,1.76.92a18.33,18.33,0,0,1,2.87.13c.22,0,.52-.05.65.33-.23.31-.59.2-.88.17a14,14,0,0,1-2.6-.36c-.74-.22-1.47.32-2.16-.12C41.11,15,39.82,13.75,38.73,14.16Z" transform="translate(-26.13 -5)"/><path d="M34.39,19.65c-.15.32-.71.05-.72.62a1.17,1.17,0,0,0,1.22-.17,1.54,1.54,0,0,1,1.41-.27c.91.2,1.84-.08,2.75.09.22,0,.51-.1.67.32l-1.63-.15a4,4,0,0,0-2.34.38,3.75,3.75,0,0,1-3.41.18c-.84-.41-1.89,0-2.84,0a6.46,6.46,0,0,0-.75.11c-.16,0-.35,0-.39-.21s.19-.34.39-.35c.67,0,1.34,0,2,0a4.33,4.33,0,0,0,2.53-.5C33.57,19.43,34,19.6,34.39,19.65Z" transform="translate(-26.13 -5)"/><path d="M69.49,24.37a4.39,4.39,0,0,1,3.4-.19c.13,0,.3.08.27.2-.26.87.42.5.76.59s.79,0,.7.64c0,.28.25.27.45.3s.51-.1.72.21c-.36.53-.89.27-1.34.25s-1.06.3-1.24-.45c-.06-.27-.29-.25-.47-.34A12.12,12.12,0,0,0,69.49,24.37Z" transform="translate(-26.13 -5)"/><path d="M37.13,14.94c4.41-.45,8.26-.27,9.58.44a4.78,4.78,0,0,1-1.93,0A7.87,7.87,0,0,0,41,15.28a6.1,6.1,0,0,1-2.12-.08C38.27,15.14,37.71,15,37.13,14.94Z" transform="translate(-26.13 -5)"/><path d="M48.89,11.83c-1.71.14-3.08-.22-4.47-.11.65-.5,1.48-.14,2.14-.55-.33-.35-.89,0-1.28-.48a5.65,5.65,0,0,1,2.91-.06C48.77,10.75,48.24,11.43,48.89,11.83Z" transform="translate(-26.13 -5)"/><path d="M50.71,8.91A2.18,2.18,0,0,1,48.45,10c-.28-.05-.63-.05-.61-.45A.58.58,0,0,1,48.39,9,6,6,0,0,1,50.71,8.91Z" transform="translate(-26.13 -5)"/><path d="M31.3,24.17c-.22.6-.61.55-.9.65s-.71.1-.43.7c.13.28-.33.56-.68.46s-.32-.41-.09-.68a.29.29,0,0,0,.06-.34c-.26-.25-.65,0-.89-.16,0-.22,0-.34.15-.37A21.53,21.53,0,0,1,31.3,24.17Z" transform="translate(-26.13 -5)"/><path d="M76.32,30.11c-.37,0-.43-.23-.31-.51s.58-.49-.17-.56c-.36,0-.25-.47,0-.67.47-.37,1-.14,1.18.52.08.3.58.47.29.85S76.66,30,76.32,30.11Z" transform="translate(-26.13 -5)"/><path d="M30.14,18.11a10,10,0,0,1,5.45-.54c-1,.46-1.89.18-2.76.29S31.14,18,30.14,18.11Z" transform="translate(-26.13 -5)"/><path d="M48.53,12.7c-1.05.43-2.11.41-4.66-.06A16.63,16.63,0,0,1,48.53,12.7Z" transform="translate(-26.13 -5)"/><path d="M30,19a9.29,9.29,0,0,1,3.78-.18A7.46,7.46,0,0,1,30,19Z" transform="translate(-26.13 -5)"/><path d="M39.52,18.89l3.86.26,0,.28A15.21,15.21,0,0,1,39.52,18.89Z" transform="translate(-26.13 -5)"/><path d="M75.55,27l1,.08c.25,0,.57.05.55.37s-.36.4-.67.36-.75-.09-1.12-.15c-.17,0-.33-.08-.32-.3a.34.34,0,0,1,.31-.33A2.42,2.42,0,0,1,75.55,27Z" transform="translate(-26.13 -5)"/><path d="M51.35,7.09a3.1,3.1,0,0,1-2,1.12,2,2,0,0,1,2-1.1Z" transform="translate(-26.13 -5)"/><path d="M46.37,16.8a1.86,1.86,0,0,1-1.67-.2A1.75,1.75,0,0,1,46.37,16.8Z" transform="translate(-26.13 -5)"/><path d="M76.32,31.1c-.2,0-.37-.11-.33-.29a.57.57,0,0,1,.66-.42.29.29,0,0,1,.31.31C76.91,31.07,76.6,31.09,76.32,31.1Z" transform="translate(-26.13 -5)"/><path d="M30.33,27c0,.21-.1.47-.31.43a.6.6,0,0,1-.41-.66.31.31,0,0,1,.33-.28C30.24,26.48,30.34,26.68,30.33,27Z" transform="translate(-26.13 -5)"/><path d="M75.76,32.13c.08-.28.38-.34.66-.38s.3.17.26.33c-.1.35-.39.41-.7.35C75.86,32.41,75.72,32.38,75.76,32.13Z" transform="translate(-26.13 -5)"/><path d="M44.93,17.94c-.59.35-.89.07-1.21,0A1.93,1.93,0,0,1,44.93,17.94Z" transform="translate(-26.13 -5)"/><path d="M29,19.17c-.13.11-.18.18-.24.22s-.27.35-.5.18-.07-.22,0-.33a.5.5,0,0,1,.55-.16S28.9,19.11,29,19.17Z" transform="translate(-26.13 -5)"/><path d="M37.31,18.73h-1C36.74,18.48,37,18.66,37.31,18.73Z" transform="translate(-26.13 -5)"/><path d="M52.25,21.75c-.4.1-.67.17-.91-.06A.77.77,0,0,1,52.25,21.75Z" transform="translate(-26.13 -5)"/><path d="M50.64,55.43a4.33,4.33,0,0,1-2.18-.25.32.32,0,0,1-.21-.25.29.29,0,0,1,.31-.31A3.48,3.48,0,0,1,50.64,55.43Z" transform="translate(-26.13 -5)"/><path d="M48.88,62.46a11,11,0,0,1-1.18-.4.26.26,0,0,1-.18-.38.31.31,0,0,1,.39-.2c.44.11.88.21,1.31.34.22.07.53.14.43.47S49.32,62.47,48.88,62.46Z" transform="translate(-26.13 -5)"/><path d="M49.61,56.83,49,56.67c-.26-.06-.47-.16-.33-.49a.39.39,0,0,1,.59-.22c.19.08.39.15.57.24s.44.11.37.39S49.8,56.79,49.61,56.83Z" transform="translate(-26.13 -5)"/><path d="M44.41,42c-.18-.35.2-.46.16-.73-.07-.44.25-.45.57-.39a2.76,2.76,0,0,0,1.35.08c-.3-.59-.94-.26-1.24-.68-.11-.23.11-.22.24-.25.4-.1.09-.88.65-.73a5.46,5.46,0,0,1,1.63.61c.36.25.26.59.18.9s-.21.76-.69.75a1.82,1.82,0,0,0-1.35.43C45.51,42.28,44.89,42,44.41,42Z" transform="translate(-26.13 -5)"/><path d="M47.34,32.55c1.25-1,2.33-.42,3.4-.18-.47.5-1,.08-1.56.14A2.82,2.82,0,0,1,47.34,32.55Z" transform="translate(-26.13 -5)"/><path d="M49.41,33.38c-.53.1-.89.17-1.25.22a.24.24,0,0,1-.26-.21.27.27,0,0,1,.16-.31C48.47,32.89,48.85,33,49.41,33.38Z" transform="translate(-26.13 -5)"/><path d="M48.39,34.51c-.13,0-.2-.06-.18-.15s.16-.17.28-.18.29,0,.19.18S48.47,34.47,48.39,34.51Z" transform="translate(-26.13 -5)"/><text x="0" y="105.63" fill="#000000" font-size="5px" font-weight="bold" font-family="'Helvetica Neue', Helvetica, Arial-Unicode, Arial, Sans-serif">Created by Maria Zamchy</text><text x="0" y="110.63" fill="#000000" font-size="5px" font-weight="bold" font-family="'Helvetica Neue', Helvetica, Arial-Unicode, Arial, Sans-serif">from the Noun Project</text></svg>