<svg xmlns="http://www.w3.org/2000/svg" xmlns:xlink="http://www.w3.org/1999/xlink" viewBox="0 0 91 115" version="1.1" x="0px" y="0px"><title>mushroom</title><desc>Created with Sketch.</desc><g stroke="none" stroke-width="1" fill="none" fill-rule="evenodd"><g><path d="M45,52 C60.463973,52 73,39.463973 73,24 C73,8.53602701 17,8.53602701 17,24 C17,39.463973 29.536027,52 45,52 Z" stroke="#000000" stroke-width="2" transform="translate(45.000000, 32.201010) scale(1, -1) translate(-45.000000, -32.201010) "/><path d="M39.911559,51.4385 C39.911559,51.4385 36.9888099,66.3117159 37.4334114,70.6187057 C37.8780129,74.9256954 40.6336337,78.2574724 44.9290835,78.2574724" stroke="#000000" stroke-width="2"/><path d="M49.404908,51.4385 C49.404908,51.4385 52.3276571,66.3117159 51.8830556,70.6187057 C51.4384541,74.9256954 48.6828333,78.2574724 44.3873836,78.2574724" stroke="#000000" stroke-width="2"/><circle stroke="#000000" stroke-width="1.188" fill="#000000" cx="37.4878358" cy="29.376" r="2.376"/><circle stroke="#000000" stroke-width="1.188" fill="#000000" cx="52.5358358" cy="29.376" r="2.376"/><path d="M34.3198358,38.1649822 C34.3198358,38.1649822 44.6915609,48.7349075 55.7038358,38.088" stroke="#000000" stroke-width="2"/><circle fill="#000000" cx="56" cy="23" r="1"/><circle fill="#000000" cx="60" cy="22" r="1"/><circle fill="#000000" cx="56.3583165" cy="19.3583165" r="1.35831655"/></g></g><text x="0" y="107" fill="#000000" font-size="5px" font-weight="bold" font-family="'Helvetica Neue', Helvetica, Arial-Unicode, Arial, Sans-serif">Created by Kevin</text><text x="0" y="112" fill="#000000" font-size="5px" font-weight="bold" font-family="'Helvetica Neue', Helvetica, Arial-Unicode, Arial, Sans-serif">from the Noun Project</text></svg>